<svg xmlns="http://www.w3.org/2000/svg" xmlns:xlink="http://www.w3.org/1999/xlink" viewBox="0,0,256,256" width="600px" height="600px"><g fill="none" fill-rule="nonzero" stroke="none" stroke-width="1" stroke-linecap="butt" stroke-linejoin="miter" stroke-miterlimit="10" stroke-dasharray="" stroke-dashoffset="0" font-family="none" font-weight="none" font-size="none" text-anchor="none" style="mix-blend-mode: normal"><g transform="scale(4,4)"><path d="M61.06445,44.258l-6.99951,-4.31078c-0.95844,-0.59445 -2.17095,-0.59445 -3.12939,0l-7,4.31078c-0.89098,0.55555 -1.43336,1.53052 -1.43555,2.58051v8.82431c0.00217,1.05001 0.54455,2.025 1.43555,2.58056l6.99951,4.31078c0.95844,0.59445 2.17095,0.59445 3.12939,0l7,-4.31078c0.891,-0.55556 1.43338,-1.53055 1.43555,-2.58056v-8.82431c-0.00219,-1.04999 -0.54457,-2.02496 -1.43555,-2.58051zM60.5,55.66282c0.0006,0.35035 -0.18053,0.67594 -0.47852,0.86018l-7,4.31177c-0.22634,0.13909 -0.49887,0.18198 -0.75699,0.11914c-0.25812,-0.06284 -0.48044,-0.2262 -0.61752,-0.45377c-0.28821,-0.47468 -0.14029,-1.09292 0.33155,-1.38575l6.52148,-4.0165v-8.25938c0,-0.55228 0.44772,-1 1,-1c0.55228,0 1,0.44772 1,1z" fill="#393ed8"></path><path d="M50.06445,38.087c0.89099,-0.55555 1.43336,-1.53052 1.43555,-2.58052v-8.8243c-0.00586,-0.32244 -0.06373,-0.64182 -0.17139,-0.94582l8.65723,-4.84716c0.48333,-0.27284 0.65655,-0.88417 0.38818,-1.37c-0.12726,-0.23343 -0.34266,-0.40621 -0.59814,-0.4798c-0.25548,-0.07359 -0.52978,-0.04187 -0.76172,0.08809l-8.92291,4.9959c-0.00983,-0.00621 -0.01685,-0.01569 -0.0268,-0.02178l-6.99951,-4.31078c-0.95844,-0.59445 -2.17095,-0.59445 -3.12939,0l-7,4.31078c-0.00995,0.00609 -0.017,0.01557 -0.0268,0.02178l-8.92291,-4.9959c-0.23194,-0.12996 -0.50624,-0.16168 -0.76172,-0.08809c-0.25548,0.07359 -0.47087,0.24637 -0.59814,0.4798c-0.26837,0.48583 -0.09515,1.09716 0.38818,1.37l8.65723,4.84716c-0.10766,0.304 -0.16553,0.62338 -0.17139,0.94582v8.8243c0.00219,1.05 0.54456,2.02497 1.43555,2.58052l6.99951,4.31078c0.95844,0.59445 2.17095,0.59445 3.12939,0zM40.647,40.3438c-0.2882,-0.47467 -0.14029,-1.09291 0.33155,-1.38574l6.52145,-4.01651v-8.25937c0,-0.55228 0.44772,-1 1,-1c0.55228,0 1,0.44772 1,1v8.8243c0.0006,0.35035 -0.18053,0.67595 -0.47852,0.86019l-7,4.31176c-0.22634,0.13908 -0.49886,0.18196 -0.75698,0.11912c-0.25811,-0.06284 -0.48042,-0.2262 -0.6175,-0.45375z" fill="#393ed8"></path><path d="M39.06445,44.258l-6.99951,-4.31078c-0.95844,-0.59445 -2.17095,-0.59445 -3.12939,0l-7,4.31078c-0.89098,0.55555 -1.43336,1.53052 -1.43555,2.58051v8.82431c0.00217,1.05001 0.54455,2.025 1.43555,2.58056l6.99951,4.31078c0.95844,0.59445 2.17095,0.59445 3.12939,0l7,-4.31078c0.891,-0.55556 1.43338,-1.53055 1.43555,-2.58056v-8.82431c-0.00219,-1.04999 -0.54457,-2.02496 -1.43555,-2.58051zM38.5,55.66282c0.0006,0.35035 -0.18053,0.67594 -0.47852,0.86018l-7,4.31177c-0.22634,0.13909 -0.49887,0.18198 -0.75699,0.11914c-0.25812,-0.06284 -0.48044,-0.2262 -0.61752,-0.45377c-0.28821,-0.47468 -0.14029,-1.09292 0.33155,-1.38575l6.52148,-4.0165v-8.25938c0,-0.55228 0.44772,-1 1,-1c0.55228,0 1,0.44772 1,1z" fill="#393ed8"></path><path d="M42.44934,27h1.19266c0.50357,1.95031 2.37879,3.22193 4.377,2.96812c1.99821,-0.25381 3.49598,-1.95385 3.49598,-3.96812c0,-2.01427 -1.49777,-3.71431 -3.49598,-3.96812c-1.99821,-0.25381 -3.87343,1.01781 -4.377,2.96812h-1.19266c-0.21841,-3.54258 -1.61507,-6.91041 -3.96783,-9.56787l1.8341,-1.83386c2.95121,2.20962 7.10826,1.76299 9.52274,-1.02311c2.41448,-2.7861 2.26548,-6.96442 -0.34132,-9.57145c-2.6068,-2.60704 -6.7851,-2.75642 -9.57142,-0.3422c-2.78632,2.41422 -3.23333,6.57123 -1.02399,9.52264l-1.83417,1.834c-2.65739,-2.35255 -6.02505,-3.74908 -9.56744,-3.96748v-1.19266c1.95031,-0.50357 3.22193,-2.37879 2.96812,-4.377c-0.25381,-1.99821 -1.95385,-3.49598 -3.96812,-3.49598c-2.01427,0 -3.71431,1.49777 -3.96812,3.49598c-0.25381,1.99821 1.01781,3.87343 2.96812,4.377v1.19269c-3.54239,0.2184 -6.91005,1.61492 -9.56744,3.96747l-1.83417,-1.834c2.20898,-2.95104 1.76197,-7.10745 -1.02398,-9.5213c-2.78595,-2.41385 -6.96366,-2.26447 -9.57009,0.3422c-2.60643,2.60667 -2.75543,6.78439 -0.34132,9.57012c2.41411,2.78573 6.57056,3.23236 9.5214,1.02311l1.8341,1.83386c-2.35276,2.65745 -3.74941,6.02528 -3.96783,9.56785h-1.19266c-0.50357,-1.95031 -2.37879,-3.22193 -4.377,-2.96812c-1.99821,0.25381 -3.49598,1.95385 -3.49598,3.96812c0,2.01427 1.49777,3.71431 3.49598,3.96812c1.99821,0.25381 3.87343,-1.01781 4.377,-2.96812h1.19263c0.21841,3.54258 1.61507,6.91041 3.96783,9.56787l-1.8341,1.83386c-2.95121,-2.20962 -7.10826,-1.76299 -9.52274,1.02311c-2.41448,2.7861 -2.26548,6.96442 0.34132,9.57145c2.6068,2.60704 6.7851,2.75642 9.57142,0.3422c2.78632,-2.41422 3.23333,-6.57123 1.02399,-9.52264l1.83417,-1.834c2.65739,2.35256 6.02507,3.74908 9.56747,3.96748v1.19266c-1.95031,0.50357 -3.22193,2.37879 -2.96812,4.377c0.25381,1.99821 1.95385,3.49598 3.96812,3.49598c2.01427,0 3.71431,-1.49777 3.96812,-3.49598c0.25381,-1.99821 -1.01781,-3.87343 -2.96812,-4.377v-1.19266c3.54239,-0.2184 6.91005,-1.61492 9.56744,-3.96747l1.83417,1.834c-2.20898,2.95104 -1.76197,7.10745 1.02398,9.5213c2.78595,2.41385 6.96366,2.26447 9.57009,-0.3422c2.60643,-2.60667 2.75543,-6.78439 0.34132,-9.57012c-2.41411,-2.78573 -6.57056,-3.23236 -9.5214,-1.02311l-1.8341,-1.83386c2.35276,-2.65746 3.74942,-6.0253 3.96783,-9.56788zM47.5,24c1.10457,0 2,0.89543 2,2c0,1.10457 -0.89543,2 -2,2c-1.10457,0 -2,-0.89543 -2,-2c0.00126,-1.10405 0.89595,-1.99874 2,-2zM44.5,3c2.76142,0 5,2.23858 5,5c0,2.76142 -2.23858,5 -5,5c-2.76142,0 -5,-2.23858 -5,-5c0.00324,-2.76008 2.23992,-4.99676 5,-5zM24.5,5c0,-1.10457 0.89543,-2 2,-2c1.10457,0 2,0.89543 2,2c0,1.10457 -0.89543,2 -2,2c-1.10405,-0.00126 -1.99874,-0.89595 -2,-2zM3.5,8c0,-2.76142 2.23858,-5 5,-5c2.76142,0 5,2.23858 5,5c0,2.76142 -2.23858,5 -5,5c-2.76008,-0.00324 -4.99676,-2.23992 -5,-5zM5.5,28c-1.10457,0 -2,-0.89543 -2,-2c0,-1.10457 0.89543,-2 2,-2c1.10457,0 2,0.89543 2,2c-0.00126,1.10405 -0.89595,1.99874 -2,2zM8.5,49c-2.76142,0 -5,-2.23858 -5,-5c0,-2.76142 2.23858,-5 5,-5c2.76142,0 5,2.23858 5,5c-0.00324,2.76008 -2.23992,4.99676 -5,5zM28.5,47c0,1.10457 -0.89543,2 -2,2c-1.10457,0 -2,-0.89543 -2,-2c0,-1.10457 0.89543,-2 2,-2c1.10405,0.00126 1.99874,0.89595 2,2zM26.5,40c-7.73199,0 -14,-6.26801 -14,-14c0,-7.73199 6.26801,-14 14,-14c7.73199,0 14,6.26801 14,14c-0.00866,7.7284 -6.2716,13.99134 -14,14zM49.5,44c0,2.76142 -2.23858,5 -5,5c-2.76142,0 -5,-2.23858 -5,-5c0,-2.76142 2.23858,-5 5,-5c2.76008,0.00324 4.99676,2.23992 5,5z" fill="#ffffff"></path><path d="M22.5,16c-3.31371,0 -6,2.68629 -6,6c0,3.31371 2.68629,6 6,6c3.31371,0 6,-2.68629 6,-6c-0.00362,-3.31221 -2.68779,-5.99638 -6,-6zM22.5,26c-2.20914,0 -4,-1.79086 -4,-4c0,-2.20914 1.79086,-4 4,-4c2.20914,0 4,1.79086 4,4c-0.00235,2.20816 -1.79184,3.99765 -4,4z" fill="#ffffff"></path></g></g></svg>