<svg xmlns="http://www.w3.org/2000/svg" xmlns:xlink="http://www.w3.org/1999/xlink" viewBox="0,0,256,256" width="500px" height="500px"><g fill="#ffffff" fill-rule="nonzero" stroke="none" stroke-width="1" stroke-linecap="butt" stroke-linejoin="miter" stroke-miterlimit="10" stroke-dasharray="" stroke-dashoffset="0" font-family="none" font-weight="none" font-size="none" text-anchor="none" style="mix-blend-mode: normal"><g transform="scale(5.12,5.12)"><path d="M13,3c-5.51133,0 -10,4.48867 -10,10v24c0,5.51133 4.48867,10 10,10h24c5.51133,0 10,-4.48867 10,-10v-24c0,-5.51133 -4.48867,-10 -10,-10zM13,5h24c4.43067,0 8,3.56933 8,8v24c0,4.43067 -3.56933,8 -8,8h-24c-4.43067,0 -8,-3.56933 -8,-8v-24c0,-4.43067 3.56933,-8 8,-8zM31.48438,7.95313c-1.31521,0.00655 -2.52629,0.47814 -3.3457,1.36133c-0.0168,0.01507 -0.03309,0.0307 -0.04883,0.04688c-0.00772,0.00862 -0.01579,0.01669 -0.02344,0.02539l-3.71289,3.94141c-0.73473,0.77994 -0.97492,1.86473 -0.88867,2.96289c0.08625,1.09816 0.48911,2.26053 1.16211,3.4043c0.00031,0.00053 0.16109,0.27642 0.17969,0.30859c-0.96548,-0.50202 -2.03613,-0.92786 -3.16797,-1.05664c-1.20305,-0.13688 -2.51731,0.1095 -3.57422,0.99609c-0.01665,0.01187 -0.03294,0.02424 -0.04883,0.03711c-0.00181,0.00156 -0.00405,0.00234 -0.00586,0.00391c-0.01198,0.01078 -0.02371,0.02185 -0.03516,0.0332c-0.0086,0.00767 -0.01706,0.01548 -0.02539,0.02344c-0.00933,0.01023 -0.01845,0.02065 -0.02734,0.03125c-0.00328,0.00323 -0.00653,0.00649 -0.00977,0.00977l-3.00781,3.43359c-0.73473,0.77994 -0.97297,1.86473 -0.88672,2.96289c0.08625,1.09816 0.48716,2.26053 1.16016,3.4043c0.00602,0.01127 0.41765,0.77183 0.62109,1.15039l-2.21289,-1.6875c-0.18738,-0.14263 -0.41909,-0.21456 -0.6543,-0.20312c-0.29305,0.01413 -0.56511,0.15624 -0.74414,0.38867l-3.98047,5.17578c-0.16345,0.21324 -0.23423,0.48328 -0.19639,0.74928c0.03784,0.266 0.18112,0.50559 0.39756,0.66478c0,0 5.29334,3.89285 6.08594,4.48242c0.0013,0.00131 0.0026,0.00261 0.00391,0.00391c2.36119,1.73512 5.29275,1.90471 6.98438,0.23438c0.04268,-0.0338 0.08252,-0.07104 0.11914,-0.11133l3.5332,-3.91992v-0.00195c0.73378,-0.77985 0.97292,-1.86339 0.88672,-2.96094c-0.08625,-1.09815 -0.48716,-2.26053 -1.16016,-3.4043l0.01953,0.03125c0,0 -0.28875,-0.53022 -0.36523,-0.67187c0.09061,0.04947 0.16731,0.10207 0.25977,0.15039c1.02708,0.5368 2.17024,1.00629 3.35156,1.16406c1.14165,0.15247 2.38673,-0.03055 3.36328,-0.83984c0.03622,-0.0244 0.0708,-0.05115 0.10352,-0.08008c0.00065,-0.00065 0.0013,-0.0013 0.00195,-0.00195c0.05231,-0.04322 0.10008,-0.09164 0.14258,-0.14453l3.24805,-3.44922c0.73473,-0.77994 0.97492,-1.86473 0.88867,-2.96289c-0.08614,-1.09683 -0.48667,-2.25796 -1.1582,-3.40039l-0.00195,-0.00195c-0.0004,-0.0007 -0.60231,-1.03355 -0.80664,-1.38477l2.52539,1.83594c0.43826,0.31862 1.05054,0.23029 1.38086,-0.19922l3.97852,-5.17578c0.16408,-0.21336 0.23523,-0.48386 0.19737,-0.75034c-0.03786,-0.26648 -0.18153,-0.50646 -0.39855,-0.66568c0,0 -5.21046,-3.82859 -6.05078,-4.45312c-1.24519,-1.01702 -2.70408,-1.49697 -4.05664,-1.49023zM31.51172,10.04688c0.88113,-0.01533 1.89882,0.23734 2.76563,0.94531c0.01151,0.00937 0.02324,0.01849 0.03516,0.02734c0.71925,0.53501 4.19746,3.09169 5.27344,3.88281l-2.76367,3.59375l-5.4082,-3.93164c-0.19057,-0.32717 -0.36659,-0.62889 -0.50781,-0.87109l-0.00195,-0.00391c-0.58283,-1.03345 -0.88398,-2.48799 -1.01172,-3.24023c0.38459,-0.23007 0.96301,-0.39093 1.61914,-0.40234zM28.23633,12.12305c0.20255,0.80384 0.44877,1.70383 0.92969,2.55469c0.00193,0.00392 0.00388,0.00783 0.00586,0.01172c0.14905,0.25561 0.33454,0.5747 0.53906,0.92578c0.03573,0.08772 0.08373,0.16992 0.14258,0.24414c1.25027,2.1465 3.13477,5.38477 3.13477,5.38477c0.00065,0.0013 0.0013,0.00261 0.00195,0.00391c0.545,0.92624 0.83462,1.83378 0.89063,2.54688c0.056,0.71309 -0.10934,1.18049 -0.34961,1.43555l-2.28906,2.42969c-0.28471,-0.8074 -0.40787,-1.38648 -1.07813,-2.51367c-0.00382,-0.00721 -0.00772,-0.01437 -0.01172,-0.02148c-0.93468,-1.49031 -3.79883,-6.4375 -3.79883,-6.4375c-0.0013,-0.00196 -0.0026,-0.00391 -0.00391,-0.00586c-0.545,-0.92624 -0.83462,-1.83378 -0.89062,-2.54687c-0.056,-0.71309 0.11129,-1.18049 0.35156,-1.43555zM20.81836,20.91016c0.18815,-0.00736 0.38541,0.00168 0.59375,0.02539c0.83338,0.09482 1.79324,0.4678 2.67773,0.94727c1.70957,0.92673 3.03957,2.14451 3.13086,2.22852c0.43935,0.74085 0.9517,1.62088 1.22461,2.05664c0.62245,1.04679 1.03141,2.15597 1.27344,2.85742c-0.36905,0.14369 -0.7955,0.18051 -1.32812,0.10938c-0.81509,-0.10886 -1.78496,-0.48337 -2.6875,-0.95508c-1.78679,-0.93385 -3.25902,-2.17578 -3.28906,-2.20117c-0.41593,-0.75053 -0.88564,-1.61572 -1.17187,-2.10742c-0.6205,-1.09782 -1.05162,-2.07598 -1.33203,-2.74414c0.28267,-0.1281 0.58002,-0.20395 0.9082,-0.2168zM18.41406,22.54688c0.31022,0.73098 0.45647,1.19492 1.08594,2.30859c0.00258,0.00392 0.00518,0.00783 0.00781,0.01172c1.02619,1.76154 3.61133,6.55664 3.61133,6.55664c0.0063,0.01119 0.01281,0.02226 0.01953,0.0332c0.545,0.92624 0.83462,1.83378 0.89063,2.54688c0.056,0.7131 -0.11129,1.18049 -0.35156,1.43555c-0.00461,0.00516 -0.00917,0.01037 -0.01367,0.01563l-2.20898,2.44922c-0.20277,-0.84106 -0.45319,-1.78143 -0.96875,-2.60156c-0.90019,-1.43531 -3.56641,-6.39844 -3.56641,-6.39844c-0.00627,-0.01185 -0.01279,-0.02357 -0.01953,-0.03516c-0.545,-0.92624 -0.83462,-1.83378 -0.89062,-2.54687c-0.056,-0.71309 0.11129,-1.18049 0.35156,-1.43555c0.00798,-0.00897 0.01579,-0.01809 0.02344,-0.02734zM13.16602,31.54102l4.97266,3.79492c0.02639,0.02023 0.05376,0.03913 0.08203,0.05664c0.19818,0.34099 0.4216,0.7375 0.57031,0.97461c0.00065,0 0.0013,0 0.00195,0c0.6135,0.97594 0.88556,2.64959 0.98047,3.28906c-0.89628,0.54017 -2.51116,0.49994 -4.08984,-0.66016c-0.72283,-0.53763 -4.19029,-3.08682 -5.26758,-3.87891z"></path></g></g></svg>