<svg xmlns="http://www.w3.org/2000/svg" xmlns:xlink="http://www.w3.org/1999/xlink" viewBox="0,0,256,256" width="480px" height="480px"><g fill="none" fill-rule="nonzero" stroke="none" stroke-width="1" stroke-linecap="butt" stroke-linejoin="miter" stroke-miterlimit="10" stroke-dasharray="" stroke-dashoffset="0" font-family="none" font-weight="none" font-size="none" text-anchor="none" style="mix-blend-mode: normal"><g transform="scale(5.33333,5.33333)"><path d="M6,10c0,-2.209 1.791,-4 3.999,-4h28c2.21,0 4,1.791 4,4v28c0,2.209 -1.791,4 -3.999,4h-28c-2.21,0 -4,-1.791 -4,-4z" fill="#21252b"></path><path d="M27.861,29.329c-1.665,0 -3.512,-1.094 -3.717,-1.219c-0.048,-0.023 -2.35,-1.249 -3.545,-1.992l-0.143,-0.09l-4.077,-5.033l1.854,-1.901c0.238,-0.258 0.76,-0.619 1.637,-0.619c1.559,0 3.488,1.175 3.703,1.309c0.023,0.009 2.269,1.168 3.547,1.998l5.386,4.121l-2.646,2.649c-0.319,0.342 -0.947,0.777 -1.999,0.777zM18.248,38.725v0c-1.188,0 -2.5,-0.475 -3.797,-1.372c-0.738,-0.516 -5.52,-3.826 -5.52,-3.826l-0.89,-0.616l4.38,-5.476l6.139,4.407l3.707,4.381l-1.538,1.53c-0.632,0.635 -1.492,0.972 -2.481,0.972zM35.719,20.281l-6.854,-4.798l-3.126,-3.854l1.602,-1.642c1.318,-1.411 3.965,-1.254 6.249,0.502c0.7,0.491 5.479,3.799 5.479,3.799l0.891,0.616z" fill="#5361dc"></path><g fill="#15b8ba"><path d="M29.609,28.797l3.762,-3.705c0.883,-0.884 0.736,-2.649 -0.368,-4.416c0,0 -2.939,-4.651 -4.359,-7.416c-1.42,-2.765 -1.121,-3.447 -1.121,-3.447l-3.97,4.047c-0.881,0.881 -0.736,2.646 0.368,4.416c0,0 3.086,5.014 4.359,7.283c1.501,2.675 1.329,3.238 1.329,3.238zM20.516,37.969l3.762,-3.705c0.883,-0.884 0.736,-2.649 -0.368,-4.416c0,0 -2.939,-4.729 -4.359,-7.494c-1.42,-2.765 -1.121,-3.447 -1.121,-3.447l-3.97,4.047c-0.881,0.881 -0.736,2.646 0.368,4.416c0,0 3.086,5.092 4.359,7.361c1.501,2.675 1.329,3.238 1.329,3.238z"></path></g></g></g></svg>