<?xml version="1.0" encoding="utf-8"?>
<svg viewBox="104.8158 58.7907 240.9414 183.8679" xmlns="http://www.w3.org/2000/svg">
  <path d="M66,7.33496v41.87012c0,1.92969 -1.56006,3.48975 -3.47998,3.48975h-57.04004c-1.91992,0 -3.47998,-1.56006 -3.47998,-3.48975v-41.87012c0,-1.91992 1.56006,-3.47998 3.47998,-3.47998h57.04004c1.91992,0 3.47998,1.56006 3.47998,3.47998z" fill="#21252b" transform="matrix(3.764709949493408, 0, 0, 3.764709949493408, 97.28636932373047, 44.277793884277344)"/>
  <path d="M6.00253,47.46301v-38.37939c0,-0.67761 0.54931,-1.22693 1.22693,-1.22693h53.54614c0.67761,0 1.22693,0.54931 1.22693,1.22693v38.37939c0,0.67761 -0.54932,1.22693 -1.22693,1.22693h-53.54614c-0.67761,0 -1.22693,-0.54932 -1.22693,-1.22693z" fill="#282c34" transform="matrix(3.764709949493408, 0, 0, 3.764709949493408, 97.28636932373047, 44.277793884277344)"/>
  <path d="M19.59033,12.35669h-9.58789c-0.27637,0 -0.5,-0.22388 -0.5,-0.5c0,-0.27612 0.22363,-0.5 0.5,-0.5h9.58789c0.27637,0 0.5,0.22388 0.5,0.5c0,0.27612 -0.22363,0.5 -0.5,0.5z" fill="#89919d" transform="matrix(3.764709949493408, 0, 0, 3.764709949493408, 97.28636932373047, 44.277793884277344)"/>
  <path d="M14.34033,16.14819h-4.33789c-0.27637,0 -0.5,-0.22388 -0.5,-0.5c0,-0.27612 0.22363,-0.5 0.5,-0.5h4.33789c0.27637,0 0.5,0.22388 0.5,0.5c0,0.27612 -0.22363,0.5 -0.5,0.5z" fill="#89919d" transform="matrix(3.764709949493408, 0, 0, 3.764709949493408, 97.28636932373047, 44.277793884277344)"/>
  <g transform="matrix(3.764709949493408, 0, 0, 3.764709949493408, 97.28636932373047, 44.277793884277344)">
    <path d="M44.58057,39.35132c-0.11475,0 -0.22852,-0.03955 -0.31982,-0.11572l-13.03564,-10.84741l-10.79443,9.07129c-0.2124,0.17725 -0.52686,0.15015 -0.70459,-0.06104c-0.17773,-0.21143 -0.15039,-0.52686 0.06104,-0.70459l10.59375,-8.90259l-12.87646,-8.22681c-0.23291,-0.14868 -0.30078,-0.45776 -0.15234,-0.69067c0.14795,-0.23242 0.4585,-0.30054 0.69043,-0.1521l13.22803,8.45142l15.35596,-6.52881c0.16455,-0.06958 0.35449,-0.04712 0.49707,0.06128c0.14307,0.10791 0.21729,0.28394 0.19482,0.46167l-2.2417,17.74683c-0.02295,0.18115 -0.14258,0.33545 -0.3125,0.40234c-0.05957,0.02344 -0.12158,0.03491 -0.18359,0.03491zM32.17334,27.87598l12.02539,10.00732l2.01855,-15.97827z" fill="#89919d"/>
    <circle cx="46.822" cy="21.105" r="6.165" fill="#279ac1"/>
    <circle cx="31.224" cy="27.736" r="4.063" fill="#279ac1"/>
    <circle cx="20.109" cy="37.077" r="4.53" fill="#279ac1"/>
    <circle cx="17.774" cy="19.143" r="2.755" fill="#279ac1"/>
    <circle cx="44.58" cy="38.851" r="2.755" fill="#279ac1"/>
  </g>
</svg>